<?xml version="1.0" standalone="no"?>
<!DOCTYPE svg PUBLIC "-//W3C//DTD SVG 20010904//EN"
 "http://www.w3.org/TR/2001/REC-SVG-20010904/DTD/svg10.dtd">
<svg version="1.0" xmlns="http://www.w3.org/2000/svg"
 width="1200.000000pt" height="1200.000000pt" viewBox="0 0 1200.000000 1200.000000"
 preserveAspectRatio="xMidYMid meet">
<metadata>
Created by potrace 1.14, written by Peter Selinger 2001-2017
</metadata>
<g transform="translate(0.000000,1200.000000) scale(0.100000,-0.100000)"
fill="#000000" stroke="none">
<path d="M5337 10329 c-85 -29 -147 -106 -164 -205 -5 -27 -9 -197 -8 -377 l0
-328 -25 -5 c-188 -42 -390 -108 -559 -181 -106 -46 -287 -138 -351 -178 -19
-12 -49 -29 -66 -38 l-31 -16 -244 241 c-273 269 -295 285 -414 289 -48 2
-107 -16 -155 -47 -19 -12 -222 -209 -451 -436 -286 -283 -424 -427 -440 -458
-47 -93 -25 -214 52 -286 19 -17 122 -122 229 -234 107 -112 201 -210 209
-217 12 -13 2 -38 -72 -181 -47 -92 -111 -228 -142 -302 -58 -137 -185 -505
-185 -534 0 -9 -3 -17 -7 -17 -5 -1 -156 -2 -338 -3 -181 -1 -346 -6 -365 -10
-73 -17 -123 -57 -163 -131 -22 -40 -22 -43 -23 -658 -1 -389 3 -635 9 -663
12 -49 63 -116 107 -139 48 -25 88 -28 432 -29 185 -1 339 -4 341 -6 2 -3 12
-34 21 -70 88 -330 240 -676 398 -905 l27 -40 -258 -255 c-142 -140 -266 -271
-277 -290 -27 -51 -24 -151 5 -210 21 -41 304 -329 783 -796 145 -141 184
-164 277 -164 83 1 113 24 385 293 290 287 251 263 341 208 57 -34 220 -123
230 -125 6 -2 35 -14 65 -29 175 -83 467 -180 615 -204 17 -3 32 -7 35 -9 2
-3 5 -164 5 -358 l1 -352 27 -56 c32 -65 64 -100 127 -136 l45 -27 625 1 c610
0 626 0 671 20 65 30 111 75 143 139 l27 56 1 355 c1 195 4 357 7 359 3 1 24
6 46 9 199 31 553 173 834 335 l125 71 238 -237 c270 -271 301 -293 409 -293
132 0 122 -8 548 414 211 210 398 395 416 412 69 68 105 159 98 252 -6 89 -16
100 -407 507 l-105 110 35 63 c148 264 294 634 344 867 5 28 12 59 15 70 4 20
12 20 342 20 411 -1 453 6 529 87 73 77 69 33 69 728 l0 625 -23 47 c-29 58
-82 111 -142 140 -44 21 -56 22 -402 24 -196 1 -361 4 -366 8 -5 3 -13 27 -17
53 -29 195 -180 561 -344 832 l-63 104 246 246 c274 275 288 295 289 410 0 79
-24 139 -75 191 -525 524 -822 811 -863 835 -43 26 -60 30 -125 30 -92 0 -103
-7 -237 -135 -55 -52 -154 -147 -222 -210 -68 -63 -136 -127 -152 -142 -16
-16 -34 -28 -40 -28 -6 0 -41 18 -79 40 -222 130 -542 256 -810 320 l-115 27
-2 350 -1 351 -27 56 c-29 62 -87 118 -155 149 -44 20 -60 21 -655 22 -539 0
-615 -2 -658 -16z m898 -2511 c11 -3 43 -9 70 -12 77 -11 267 -63 353 -97 488
-194 865 -571 1052 -1054 45 -118 92 -299 107 -418 9 -71 11 -415 3 -455 -5
-20 -11 -55 -14 -77 -44 -314 -219 -683 -436 -919 -73 -80 -98 -104 -177 -172
-211 -182 -456 -312 -726 -385 -23 -6 -51 -13 -62 -15 -11 -2 -31 -6 -45 -9
-111 -24 -155 -28 -340 -30 -159 -3 -225 2 -380 30 -67 11 -224 57 -299 86
-626 246 -1066 806 -1158 1474 -10 78 -10 393 0 470 45 328 161 607 366 880
153 205 384 395 626 518 158 80 387 156 520 172 28 4 66 10 85 14 37 9 421 7
455 -1z"/>
<path d="M6830 6581 c-189 -51 -343 -189 -409 -367 -28 -74 -32 -97 -37 -195
-12 -286 181 -537 465 -605 14 -4 68 -8 119 -9 338 -9 608 252 610 590 1 178
-67 332 -201 456 -42 39 -148 98 -217 122 -78 27 -243 31 -330 8z m263 -339
c50 -23 109 -80 133 -131 10 -20 20 -67 22 -104 4 -61 1 -75 -27 -130 -85
-170 -301 -201 -435 -64 -102 106 -94 287 18 383 81 69 196 87 289 46z"/>
<path d="M4725 6578 c-217 -24 -318 -162 -302 -414 7 -98 27 -159 71 -211 33
-40 100 -79 151 -89 22 -5 43 -9 48 -10 4 -1 65 -2 135 -3 141 -1 165 -9 165
-55 0 -57 -14 -60 -231 -62 -108 -1 -207 -2 -219 -3 -38 -2 -84 -52 -97 -105
-15 -57 -4 -141 22 -170 41 -45 64 -48 296 -48 236 0 295 8 363 47 100 59 144
151 149 310 4 159 -32 253 -121 316 -58 41 -133 57 -280 58 -70 1 -136 6 -145
11 -25 14 -31 57 -10 82 16 20 26 22 204 23 169 2 189 4 214 22 88 64 84 246
-6 289 -27 13 -68 17 -191 18 -86 0 -183 -2 -216 -6z"/>
<path d="M5535 6580 c-64 -7 -88 -21 -116 -66 l-22 -36 0 -478 c0 -449 1 -479
19 -516 13 -26 32 -45 58 -58 35 -17 64 -19 356 -18 353 0 368 3 413 66 31 44
32 152 1 193 -47 63 -66 67 -304 68 l-215 0 -3 47 -3 46 188 4 c181 3 189 4
220 27 41 31 63 77 63 134 0 53 -10 83 -38 114 -39 45 -79 53 -262 53 l-171 0
3 47 3 48 221 0 222 1 34 26 c73 56 89 151 39 230 -21 33 -40 49 -67 58 -39
13 -539 20 -639 10z"/>
</g>
</svg>
